<svg width="1922" height="674" viewBox="0 0 1922 674" fill="none" xmlns="http://www.w3.org/2000/svg">
<g filter="url(#filter0_f_1649_1551)">
<path fill-rule="evenodd" clip-rule="evenodd" d="M340 552.2V628.6L405.501 590.4L405.501 514L340 552.2Z" fill="#464646"/>
<path fill-rule="evenodd" clip-rule="evenodd" d="M339.999 474.2V550.6L405.499 512.4L405.5 436L339.999 474.2Z" fill="#E1001E"/>
<path fill-rule="evenodd" clip-rule="evenodd" d="M675 512.2V588.6L740.501 550.4L740.501 474L675 512.2Z" fill="#E1001E"/>
<path fill-rule="evenodd" clip-rule="evenodd" d="M407 435.2V511.6L472.501 473.4L472.501 397L407 435.2Z" fill="#464646"/>
<path fill-rule="evenodd" clip-rule="evenodd" d="M472.501 553V629.4L407 591.2L472.501 553Z" fill="#ABABAB"/>
<path fill-rule="evenodd" clip-rule="evenodd" d="M606.501 473V549.4L541 511.2L606.501 473Z" fill="#ABABAB"/>
<path fill-rule="evenodd" clip-rule="evenodd" d="M740.501 552V628.4L675 590.2L740.501 552Z" fill="#ABABAB"/>
<path fill-rule="evenodd" clip-rule="evenodd" d="M608 473V549.4L673.501 511.2L608 473Z" fill="#686868"/>
<path fill-rule="evenodd" clip-rule="evenodd" d="M541 433.2V509.6L606.501 471.4L606.501 395L541 433.2Z" fill="#464646"/>
<path fill-rule="evenodd" clip-rule="evenodd" d="M608 551.2V627.6L673.501 589.4L673.501 513L608 551.2Z" fill="#464646"/>
<path fill-rule="evenodd" clip-rule="evenodd" d="M474 552.2V628.6L539.501 590.4L539.501 514L474 552.2Z" fill="#464646"/>
<path fill-rule="evenodd" clip-rule="evenodd" d="M407 357.2V433.6L472.501 395.4L472.501 319L407 357.2Z" fill="#464646"/>
<path fill-rule="evenodd" clip-rule="evenodd" d="M539.501 434.2V510.6L474 472.4L474 396L539.501 434.2Z" fill="#464646"/>
<path fill-rule="evenodd" clip-rule="evenodd" d="M407 513L472.501 551.2L407 589.4V513Z" fill="#474747"/>
<path fill-rule="evenodd" clip-rule="evenodd" d="M539.501 356L474 394.2L539.501 432.4L605.001 394.2L539.501 356Z" fill="#E1001E"/>
<path fill-rule="evenodd" clip-rule="evenodd" d="M474.501 474L409 512.2L474.501 550.4L540.001 512.2L474.501 474Z" fill="#E1001E"/>
<path fill-rule="evenodd" clip-rule="evenodd" d="M539.501 592L474 630.2L539.501 668.4L605.001 630.2L539.501 592Z" fill="#E1001E"/>
<path fill-rule="evenodd" clip-rule="evenodd" d="M673.501 591L608 629.2L673.501 667.4L739.001 629.2L673.501 591Z" fill="#202020"/>
<path fill-rule="evenodd" clip-rule="evenodd" d="M407.001 278.2V354.6L472.502 316.4L472.502 240L407.001 278.2Z" fill="#464646"/>
<path fill-rule="evenodd" clip-rule="evenodd" d="M407 200.2V276.6L472.501 238.4L472.501 162L407 200.2Z" fill="#E1001E"/>
<path fill-rule="evenodd" clip-rule="evenodd" d="M742.001 238.2V314.6L807.502 276.4L807.502 200L742.001 238.2Z" fill="#E1001E"/>
<path fill-rule="evenodd" clip-rule="evenodd" d="M474.001 161.2V237.6L539.502 199.4L539.502 123L474.001 161.2Z" fill="#464646"/>
<path fill-rule="evenodd" clip-rule="evenodd" d="M539.502 279V355.4L474.001 317.2L539.502 279Z" fill="#ABABAB"/>
<path fill-rule="evenodd" clip-rule="evenodd" d="M673.502 199V275.4L608.001 237.2L673.502 199Z" fill="#ABABAB"/>
<path fill-rule="evenodd" clip-rule="evenodd" d="M807.502 278V354.4L742.001 316.2L807.502 278Z" fill="#ABABAB"/>
<path fill-rule="evenodd" clip-rule="evenodd" d="M675.001 199V275.4L740.502 237.2L675.001 199Z" fill="#686868"/>
<path fill-rule="evenodd" clip-rule="evenodd" d="M608.001 159.2V235.6L673.502 197.4L673.502 121L608.001 159.2Z" fill="#464646"/>
<path fill-rule="evenodd" clip-rule="evenodd" d="M675.001 277.2V353.6L740.502 315.4L740.502 239L675.001 277.2Z" fill="#464646"/>
<path fill-rule="evenodd" clip-rule="evenodd" d="M541.001 278.2V354.6L606.502 316.4L606.502 240L541.001 278.2Z" fill="#464646"/>
<path fill-rule="evenodd" clip-rule="evenodd" d="M474.001 83.2001V159.6L539.502 121.4L539.502 45L474.001 83.2001Z" fill="#464646"/>
<path fill-rule="evenodd" clip-rule="evenodd" d="M606.502 160.2V236.6L541.001 198.4L541.001 122L606.502 160.2Z" fill="#464646"/>
<path fill-rule="evenodd" clip-rule="evenodd" d="M474.001 239L539.502 277.2L474.001 315.4V239Z" fill="#474747"/>
<path fill-rule="evenodd" clip-rule="evenodd" d="M606.502 82L541.001 120.2L606.502 158.4L672.002 120.2L606.502 82Z" fill="#E1001E"/>
<path fill-rule="evenodd" clip-rule="evenodd" d="M541.502 200L476.001 238.2L541.502 276.4L607.002 238.2L541.502 200Z" fill="#E1001E"/>
<path fill-rule="evenodd" clip-rule="evenodd" d="M607.502 317L542.001 355.2L607.502 393.4L673.002 355.2L607.502 317Z" fill="#E1001E"/>
<path fill-rule="evenodd" clip-rule="evenodd" d="M740.502 317L675.001 355.2L740.502 393.4L806.002 355.2L740.502 317Z" fill="#202020"/>
<path fill-rule="evenodd" clip-rule="evenodd" d="M743.001 550.2V626.6L808.502 588.4L808.502 512L743.001 550.2Z" fill="#464646"/>
<path fill-rule="evenodd" clip-rule="evenodd" d="M743 472.2V548.6L808.501 510.4L808.501 434L743 472.2Z" fill="#E1001E"/>
<path fill-rule="evenodd" clip-rule="evenodd" d="M1078 510.2V586.6L1143.5 548.4L1143.5 472L1078 510.2Z" fill="#E1001E"/>
<path fill-rule="evenodd" clip-rule="evenodd" d="M810.001 433.2V509.6L875.502 471.4L875.502 395L810.001 433.2Z" fill="#464646"/>
<path fill-rule="evenodd" clip-rule="evenodd" d="M875.502 551V627.4L810.001 589.2L875.502 551Z" fill="#ABABAB"/>
<path fill-rule="evenodd" clip-rule="evenodd" d="M1009.5 471V547.4L944.001 509.2L1009.5 471Z" fill="#ABABAB"/>
<path fill-rule="evenodd" clip-rule="evenodd" d="M1143.5 550V626.4L1078 588.2L1143.5 550Z" fill="#ABABAB"/>
<path fill-rule="evenodd" clip-rule="evenodd" d="M1011 471V547.4L1076.5 509.2L1011 471Z" fill="#686868"/>
<path fill-rule="evenodd" clip-rule="evenodd" d="M944.001 431.2V507.6L1009.5 469.4L1009.5 393L944.001 431.2Z" fill="#464646"/>
<path fill-rule="evenodd" clip-rule="evenodd" d="M1011 549.2V625.6L1076.5 587.4L1076.5 511L1011 549.2Z" fill="#464646"/>
<path fill-rule="evenodd" clip-rule="evenodd" d="M877.001 550.2V626.6L942.502 588.4L942.502 512L877.001 550.2Z" fill="#464646"/>
<path fill-rule="evenodd" clip-rule="evenodd" d="M810.001 355.2V431.6L875.502 393.4L875.502 317L810.001 355.2Z" fill="#464646"/>
<path fill-rule="evenodd" clip-rule="evenodd" d="M942.502 432.2V508.6L877.001 470.4L877.001 394L942.502 432.2Z" fill="#464646"/>
<path fill-rule="evenodd" clip-rule="evenodd" d="M810.001 511L875.502 549.2L810.001 587.4V511Z" fill="#474747"/>
<path fill-rule="evenodd" clip-rule="evenodd" d="M942.502 354L877.001 392.2L942.502 430.4L1008 392.2L942.502 354Z" fill="#E1001E"/>
<path fill-rule="evenodd" clip-rule="evenodd" d="M877.502 472L812.001 510.2L877.502 548.4L943.002 510.2L877.502 472Z" fill="#E1001E"/>
<path fill-rule="evenodd" clip-rule="evenodd" d="M943.502 589L878.001 627.2L943.502 665.4L1009 627.2L943.502 589Z" fill="#E1001E"/>
<path fill-rule="evenodd" clip-rule="evenodd" d="M1076.5 589L1011 627.2L1076.5 665.4L1142 627.2L1076.5 589Z" fill="#202020"/>
<path fill-rule="evenodd" clip-rule="evenodd" d="M1211.5 510.2V586.6L1146 548.4L1146 472L1211.5 510.2Z" fill="#E1001E"/>
<path fill-rule="evenodd" clip-rule="evenodd" d="M1280 471V547.4L1345.5 509.2L1280 471Z" fill="#ABABAB"/>
<path fill-rule="evenodd" clip-rule="evenodd" d="M1146 550V626.4L1211.5 588.2L1146 550Z" fill="#ABABAB"/>
<path fill-rule="evenodd" clip-rule="evenodd" d="M1278.5 471V547.4L1213 509.2L1278.5 471Z" fill="#686868"/>
<path fill-rule="evenodd" clip-rule="evenodd" d="M1345.5 431.2V507.6L1280 469.4L1280 393L1345.5 431.2Z" fill="#464646"/>
<path fill-rule="evenodd" clip-rule="evenodd" d="M1278.5 549.2V625.6L1213 587.4L1213 511L1278.5 549.2Z" fill="#464646"/>
<path fill-rule="evenodd" clip-rule="evenodd" d="M1213 589L1278.5 627.2L1213 665.4L1147.5 627.2L1213 589Z" fill="#202020"/>
<path fill-rule="evenodd" clip-rule="evenodd" d="M5.00136 355.2V278.8L70.502 317L70.5022 393.4L5.00136 355.2Z" fill="#464646"/>
<path fill-rule="evenodd" clip-rule="evenodd" d="M4.99989 433.2V356.8L70.5005 395L70.5007 471.4L4.99989 433.2Z" fill="#E1001E"/>
<path fill-rule="evenodd" clip-rule="evenodd" d="M340.001 395.2V318.8L405.502 357L405.502 433.4L340.001 395.2Z" fill="#E1001E"/>
<path fill-rule="evenodd" clip-rule="evenodd" d="M72.0011 472.2V395.8L137.502 434L137.502 510.4L72.0011 472.2Z" fill="#464646"/>
<path fill-rule="evenodd" clip-rule="evenodd" d="M137.502 354.4V278L72.0012 316.2L137.502 354.4Z" fill="#ABABAB"/>
<path fill-rule="evenodd" clip-rule="evenodd" d="M271.502 434.4V358L206.001 396.2L271.502 434.4Z" fill="#ABABAB"/>
<path fill-rule="evenodd" clip-rule="evenodd" d="M405.502 355.4V279L340.001 317.2L405.502 355.4Z" fill="#ABABAB"/>
<path fill-rule="evenodd" clip-rule="evenodd" d="M273.001 434.4V358L338.502 396.2L273.001 434.4Z" fill="#686868"/>
<path fill-rule="evenodd" clip-rule="evenodd" d="M206.001 474.2V397.8L271.502 436L271.502 512.4L206.001 474.2Z" fill="#464646"/>
<path fill-rule="evenodd" clip-rule="evenodd" d="M273.001 356.2V279.8L338.502 318L338.502 394.4L273.001 356.2Z" fill="#464646"/>
<path fill-rule="evenodd" clip-rule="evenodd" d="M139.001 355.2V278.8L204.502 317L204.502 393.4L139.001 355.2Z" fill="#464646"/>
<path fill-rule="evenodd" clip-rule="evenodd" d="M72.0011 550.2V473.8L137.502 512L137.502 588.4L72.0011 550.2Z" fill="#464646"/>
<path fill-rule="evenodd" clip-rule="evenodd" d="M204.502 473.2V396.8L139.001 435L139.001 511.4L204.502 473.2Z" fill="#464646"/>
<path fill-rule="evenodd" clip-rule="evenodd" d="M72.0012 394.4L137.502 356.2L72.0012 318V394.4Z" fill="#474747"/>
<path fill-rule="evenodd" clip-rule="evenodd" d="M204.502 551.4L139.001 513.2L204.502 475L270.002 513.2L204.502 551.4Z" fill="#E1001E"/>
<path fill-rule="evenodd" clip-rule="evenodd" d="M139.502 433.4L74.0012 395.2L139.502 357L205.002 395.2L139.502 433.4Z" fill="#E1001E"/>
<path fill-rule="evenodd" clip-rule="evenodd" d="M204.502 315.4L139.001 277.2L204.502 239L270.002 277.2L204.502 315.4Z" fill="#E1001E"/>
<path fill-rule="evenodd" clip-rule="evenodd" d="M339.001 316.4L273.501 278.2L339.001 240L404.502 278.2L339.001 316.4Z" fill="#202020"/>
<path fill-rule="evenodd" clip-rule="evenodd" d="M1181 278.2V354.6L1246.5 316.4L1246.5 240L1181 278.2Z" fill="#464646"/>
<path fill-rule="evenodd" clip-rule="evenodd" d="M1181 200.2V276.6L1246.5 238.4L1246.5 162L1181 200.2Z" fill="#E1001E"/>
<path fill-rule="evenodd" clip-rule="evenodd" d="M1516 238.2V314.6L1581.5 276.4L1581.5 200L1516 238.2Z" fill="#E1001E"/>
<path fill-rule="evenodd" clip-rule="evenodd" d="M1248 161.2V237.6L1313.5 199.4L1313.5 123L1248 161.2Z" fill="#464646"/>
<path fill-rule="evenodd" clip-rule="evenodd" d="M1313.5 279V355.4L1248 317.2L1313.5 279Z" fill="#ABABAB"/>
<path fill-rule="evenodd" clip-rule="evenodd" d="M1447.5 199V275.4L1382 237.2L1447.5 199Z" fill="#ABABAB"/>
<path fill-rule="evenodd" clip-rule="evenodd" d="M1581.5 278V354.4L1516 316.2L1581.5 278Z" fill="#ABABAB"/>
<path fill-rule="evenodd" clip-rule="evenodd" d="M1449 199V275.4L1514.5 237.2L1449 199Z" fill="#686868"/>
<path fill-rule="evenodd" clip-rule="evenodd" d="M1382 159.2V235.6L1447.5 197.4L1447.5 121L1382 159.2Z" fill="#464646"/>
<path fill-rule="evenodd" clip-rule="evenodd" d="M1449 277.2V353.6L1514.5 315.4L1514.5 239L1449 277.2Z" fill="#464646"/>
<path fill-rule="evenodd" clip-rule="evenodd" d="M1315 278.2V354.6L1380.5 316.4L1380.5 240L1315 278.2Z" fill="#464646"/>
<path fill-rule="evenodd" clip-rule="evenodd" d="M1248 83.2001V159.6L1313.5 121.4L1313.5 45L1248 83.2001Z" fill="#464646"/>
<path fill-rule="evenodd" clip-rule="evenodd" d="M1380.5 160.2V236.6L1315 198.4L1315 122L1380.5 160.2Z" fill="#464646"/>
<path fill-rule="evenodd" clip-rule="evenodd" d="M1248 239L1313.5 277.2L1248 315.4V239Z" fill="#474747"/>
<path fill-rule="evenodd" clip-rule="evenodd" d="M1380.5 82L1315 120.2L1380.5 158.4L1446 120.2L1380.5 82Z" fill="#E1001E"/>
<path fill-rule="evenodd" clip-rule="evenodd" d="M1315.5 200L1250 238.2L1315.5 276.4L1381 238.2L1315.5 200Z" fill="#E1001E"/>
<path fill-rule="evenodd" clip-rule="evenodd" d="M1380.5 318L1315 356.2L1380.5 394.4L1446 356.2L1380.5 318Z" fill="#E1001E"/>
<path fill-rule="evenodd" clip-rule="evenodd" d="M1514.5 317L1449 355.2L1514.5 393.4L1580 355.2L1514.5 317Z" fill="#202020"/>
<path fill-rule="evenodd" clip-rule="evenodd" d="M1780.5 552.2V628.6L1715 590.4L1715 514L1780.5 552.2Z" fill="#464646"/>
<path fill-rule="evenodd" clip-rule="evenodd" d="M1780.5 474.2V550.6L1715 512.4L1715 436L1780.5 474.2Z" fill="#E1001E"/>
<path fill-rule="evenodd" clip-rule="evenodd" d="M1445.5 512.2V588.6L1380 550.4L1380 474L1445.5 512.2Z" fill="#E1001E"/>
<path fill-rule="evenodd" clip-rule="evenodd" d="M1713.5 435.2V511.6L1648 473.4L1648 397L1713.5 435.2Z" fill="#464646"/>
<path fill-rule="evenodd" clip-rule="evenodd" d="M1648 553V629.4L1713.5 591.2L1648 553Z" fill="#ABABAB"/>
<path fill-rule="evenodd" clip-rule="evenodd" d="M1514 473V549.4L1579.5 511.2L1514 473Z" fill="#ABABAB"/>
<path fill-rule="evenodd" clip-rule="evenodd" d="M1380 552V628.4L1445.5 590.2L1380 552Z" fill="#ABABAB"/>
<path fill-rule="evenodd" clip-rule="evenodd" d="M1512.5 473V549.4L1447 511.2L1512.5 473Z" fill="#686868"/>
<path fill-rule="evenodd" clip-rule="evenodd" d="M1579.5 433.2V509.6L1514 471.4L1514 395L1579.5 433.2Z" fill="#464646"/>
<path fill-rule="evenodd" clip-rule="evenodd" d="M1512.5 551.2V627.6L1447 589.4L1447 513L1512.5 551.2Z" fill="#464646"/>
<path fill-rule="evenodd" clip-rule="evenodd" d="M1646.5 552.2V628.6L1581 590.4L1581 514L1646.5 552.2Z" fill="#464646"/>
<path fill-rule="evenodd" clip-rule="evenodd" d="M1713.5 357.2V433.6L1648 395.4L1648 319L1713.5 357.2Z" fill="#464646"/>
<path fill-rule="evenodd" clip-rule="evenodd" d="M1581 434.2V510.6L1646.5 472.4L1646.5 396L1581 434.2Z" fill="#464646"/>
<path fill-rule="evenodd" clip-rule="evenodd" d="M1713.5 513L1648 551.2L1713.5 589.4V513Z" fill="#474747"/>
<path fill-rule="evenodd" clip-rule="evenodd" d="M1581 356L1646.5 394.2L1581 432.4L1515.5 394.2L1581 356Z" fill="#E1001E"/>
<path fill-rule="evenodd" clip-rule="evenodd" d="M1646 474L1711.5 512.2L1646 550.4L1580.5 512.2L1646 474Z" fill="#E1001E"/>
<path fill-rule="evenodd" clip-rule="evenodd" d="M1581 592L1646.5 630.2L1581 668.4L1515.5 630.2L1581 592Z" fill="#E1001E"/>
<path fill-rule="evenodd" clip-rule="evenodd" d="M1446.5 591L1512 629.2L1446.5 667.4L1381 629.2L1446.5 591Z" fill="#202020"/>
<path fill-rule="evenodd" clip-rule="evenodd" d="M1916.5 157.2V80.7999L1851 119L1851 195.4L1916.5 157.2Z" fill="#464646"/>
<path fill-rule="evenodd" clip-rule="evenodd" d="M1916.5 235.2V158.8L1851 197L1851 273.4L1916.5 235.2Z" fill="#E1001E"/>
<path fill-rule="evenodd" clip-rule="evenodd" d="M1581.5 197.2V120.8L1516 159L1516 235.4L1581.5 197.2Z" fill="#E1001E"/>
<path fill-rule="evenodd" clip-rule="evenodd" d="M1849.5 274.2V197.8L1784 236L1784 312.4L1849.5 274.2Z" fill="#464646"/>
<path fill-rule="evenodd" clip-rule="evenodd" d="M1784 156.4V80L1849.5 118.2L1784 156.4Z" fill="#ABABAB"/>
<path fill-rule="evenodd" clip-rule="evenodd" d="M1650 236.4V160L1715.5 198.2L1650 236.4Z" fill="#ABABAB"/>
<path fill-rule="evenodd" clip-rule="evenodd" d="M1516 157.4V81L1581.5 119.2L1516 157.4Z" fill="#ABABAB"/>
<path fill-rule="evenodd" clip-rule="evenodd" d="M1648.5 236.4V160L1583 198.2L1648.5 236.4Z" fill="#686868"/>
<path fill-rule="evenodd" clip-rule="evenodd" d="M1715.5 276.2V199.8L1650 238L1650 314.4L1715.5 276.2Z" fill="#464646"/>
<path fill-rule="evenodd" clip-rule="evenodd" d="M1648.5 158.2V81.7999L1583 120L1583 196.4L1648.5 158.2Z" fill="#464646"/>
<path fill-rule="evenodd" clip-rule="evenodd" d="M1782.5 157.2V80.7999L1717 119L1717 195.4L1782.5 157.2Z" fill="#464646"/>
<path fill-rule="evenodd" clip-rule="evenodd" d="M1849.5 352.2V275.8L1784 314L1784 390.4L1849.5 352.2Z" fill="#464646"/>
<path fill-rule="evenodd" clip-rule="evenodd" d="M1717 276.2V199.8L1782.5 238L1782.5 314.4L1717 276.2Z" fill="#464646"/>
<path fill-rule="evenodd" clip-rule="evenodd" d="M1849.5 196.4L1784 158.2L1849.5 120V196.4Z" fill="#474747"/>
<path fill-rule="evenodd" clip-rule="evenodd" d="M1715 355.4L1780.5 317.2L1715 279L1649.5 317.2L1715 355.4Z" fill="#E1001E"/>
<path fill-rule="evenodd" clip-rule="evenodd" d="M1782 235.4L1847.5 197.2L1782 159L1716.5 197.2L1782 235.4Z" fill="#E1001E"/>
<path fill-rule="evenodd" clip-rule="evenodd" d="M1717 117.4L1782.5 79.2001L1717 41L1651.5 79.2001L1717 117.4Z" fill="#E1001E"/>
<path fill-rule="evenodd" clip-rule="evenodd" d="M1582.5 118.4L1648 80.2001L1582.5 42L1517 80.2001L1582.5 118.4Z" fill="#202020"/>
<path fill-rule="evenodd" clip-rule="evenodd" d="M473.501 81.4001L539.001 43.2001L473.501 5L408 43.2001L473.501 81.4001Z" fill="#202020"/>
</g>
<defs>
<filter id="filter0_f_1649_1551" x="0" y="0" width="1921.5" height="673.4" filterUnits="userSpaceOnUse" color-interpolation-filters="sRGB">
<feFlood flood-opacity="0" result="BackgroundImageFix"/>
<feBlend mode="normal" in="SourceGraphic" in2="BackgroundImageFix" result="shape"/>
<feGaussianBlur stdDeviation="2.5" result="effect1_foregroundBlur_1649_1551"/>
</filter>
</defs>
</svg>
