<svg xmlns="http://www.w3.org/2000/svg" width="40" height="40" viewBox="0 0 37 37" fill="none">
  <circle cx="18.5" cy="18.5" r="18.5" fill="transparent"/>
  <path d="M18.5 8C11.9091 8 6.28045 12.1467 4 18C6.28045 23.8533 11.9091 28 18.5 28C25.0909 28 30.7195 23.8533 33 18C30.7195 12.1467 25.0909 8 18.5 8ZM18.5 24.6667C14.8618 24.6667 11.9091 21.68 11.9091 18C11.9091 14.32 14.8618 11.3333 18.5 11.3333C22.1382 11.3333 25.0909 14.32 25.0909 18C25.0909 21.68 22.1382 24.6667 18.5 24.6667ZM18.5 14C16.3118 14 14.5455 15.7867 14.5455 18C14.5455 20.2133 16.3118 22 18.5 22C20.6882 22 22.4545 20.2133 22.4545 18C22.4545 15.7867 20.6882 14 18.5 14Z" fill="#202020"/>
</svg>