<svg width="280" height="280" viewBox="0 0 280 280" fill="none" xmlns="http://www.w3.org/2000/svg">
<circle cx="140" cy="140" r="140" fill="#DFDFDF"/>
<path d="M140.167 156.7C147.089 156.7 152.7 151.089 152.7 144.167C152.7 137.245 147.089 131.633 140.167 131.633C133.245 131.633 127.634 137.245 127.634 144.167C127.634 151.089 133.245 156.7 140.167 156.7Z" fill="#202020"/>
<path d="M128.417 105L121.249 112.833H108.833C104.525 112.833 101 116.358 101 120.667V167.667C101 171.975 104.525 175.5 108.833 175.5H171.5C175.808 175.5 179.333 171.975 179.333 167.667V120.667C179.333 116.358 175.808 112.833 171.5 112.833H159.084L151.917 105H128.417ZM140.167 163.75C129.357 163.75 120.583 154.977 120.583 144.167C120.583 133.357 129.357 124.583 140.167 124.583C150.977 124.583 159.75 133.357 159.75 144.167C159.75 154.977 150.977 163.75 140.167 163.75Z" fill="#202020"/>
</svg>
