<svg width="79" height="71" viewBox="0 0 79 71" fill="none" xmlns="http://www.w3.org/2000/svg">
<path d="M39.167 51.7C46.089 51.7 51.7003 46.0887 51.7003 39.1667C51.7003 32.2447 46.089 26.6334 39.167 26.6334C32.245 26.6334 26.6337 32.2447 26.6337 39.1667C26.6337 46.0887 32.245 51.7 39.167 51.7Z" fill="#202020"/>
<path d="M27.4167 0L20.2492 7.83333H7.83333C3.525 7.83333 0 11.3583 0 15.6667V62.6667C0 66.975 3.525 70.5 7.83333 70.5H70.5C74.8083 70.5 78.3333 66.975 78.3333 62.6667V15.6667C78.3333 11.3583 74.8083 7.83333 70.5 7.83333H58.0842L50.9167 0H27.4167ZM39.1667 58.75C28.3567 58.75 19.5833 49.9767 19.5833 39.1667C19.5833 28.3567 28.3567 19.5833 39.1667 19.5833C49.9767 19.5833 58.75 28.3567 58.75 39.1667C58.75 49.9767 49.9767 58.75 39.1667 58.75Z" fill="#202020"/>
</svg>
