<svg width="46" height="46" viewBox="0 0 46 46" fill="none" xmlns="http://www.w3.org/2000/svg">
<circle cx="23" cy="23" r="23" fill="#DFDFDF"/>
<path d="M35.2339 24.5667C35.3024 24.0667 35.3367 23.55 35.3367 23C35.3367 22.4667 35.3024 21.9333 35.2167 21.4333L38.695 18.8C39.0034 18.5667 39.0891 18.1167 38.9006 17.7833L35.6108 12.25C35.4052 11.8833 34.9769 11.7667 34.5999 11.8833L30.5048 13.4833C29.6481 12.85 28.74 12.3167 27.7291 11.9167L27.1122 7.68333C27.0437 7.28333 26.701 7 26.2898 7H19.7102C19.299 7 18.9734 7.28333 18.9049 7.68333L18.2881 11.9167C17.2771 12.3167 16.3519 12.8667 15.5123 13.4833L11.4172 11.8833C11.0403 11.75 10.6119 11.8833 10.4063 12.25L7.13365 17.7833C6.92804 18.1333 6.99657 18.5667 7.33926 18.8L10.8175 21.4333C10.7318 21.9333 10.6633 22.4833 10.6633 23C10.6633 23.5167 10.6976 24.0667 10.7833 24.5667L7.30499 27.2C6.99657 27.4333 6.9109 27.8833 7.09938 28.2167L10.3892 33.75C10.5948 34.1167 11.0231 34.2333 11.4001 34.1167L15.4952 32.5167C16.3519 33.15 17.26 33.6833 18.2709 34.0833L18.8878 38.3167C18.9734 38.7167 19.299 39 19.7102 39H26.2898C26.701 39 27.0437 38.7167 27.0951 38.3167L27.7119 34.0833C28.7229 33.6833 29.6481 33.15 30.4877 32.5167L34.5828 34.1167C34.9597 34.25 35.3881 34.1167 35.5937 33.75L38.8835 28.2167C39.0891 27.85 39.0034 27.4333 38.6779 27.2L35.2339 24.5667ZM23 29C19.6074 29 16.8317 26.3 16.8317 23C16.8317 19.7 19.6074 17 23 17C26.3926 17 29.1683 19.7 29.1683 23C29.1683 26.3 26.3926 29 23 29Z" fill="#202020"/>
</svg>
